<?xml version="1.0" standalone="no"?>
<!DOCTYPE svg PUBLIC "-//W3C//DTD SVG 20010904//EN"
 "http://www.w3.org/TR/2001/REC-SVG-20010904/DTD/svg10.dtd">
<svg version="1.0" xmlns="http://www.w3.org/2000/svg"
 width="300.000000pt" height="300.000000pt" viewBox="0 0 300.000000 300.000000"
 preserveAspectRatio="xMidYMid meet">
<metadata>
Created by potrace 1.10, written by Peter Selinger 2001-2011
</metadata>
<g transform="translate(0.000000,300.000000) scale(0.100000,-0.100000)"
fill="#000000" stroke="none">
<path d="M1128 2810 c-227 -24 -431 -85 -632 -188 -112 -57 -143 -78 -212
-147 -92 -90 -143 -182 -165 -293 -17 -89 -6 -308 26 -522 29 -200 48 -287
108 -488 l42 -144 55 -39 c64 -45 356 -196 513 -264 148 -64 196 -73 279 -52
36 9 71 19 79 22 10 4 19 -5 27 -27 6 -18 30 -61 51 -95 l40 -62 98 -32 c90
-30 109 -33 241 -34 l143 -2 72 -77 c62 -67 78 -79 117 -87 85 -16 128 -11
206 25 199 92 630 431 685 538 41 80 29 122 -171 623 -100 249 -110 289 -110
418 0 164 -40 261 -147 356 -30 27 -81 63 -113 80 -36 20 -67 45 -84 71 -45
69 -159 147 -261 180 -23 7 -54 29 -72 50 -66 76 -208 143 -370 174 -102 19
-333 27 -445 16z m367 -56 c53 -7 114 -22 94 -23 -9 -1 -85 -8 -170 -16 -178
-18 -276 -46 -368 -105 -131 -85 -178 -145 -263 -331 l-52 -114 1 -135 c0
-126 3 -142 35 -240 42 -125 49 -160 88 -440 17 -118 44 -280 61 -360 17 -80
32 -155 35 -167 2 -12 9 -34 14 -49 18 -47 12 -46 -160 34 -52 24 -111 51
-130 59 -112 49 -319 155 -333 171 -10 11 -20 28 -22 38 -6 26 -34 136 -40
154 -17 56 -52 199 -60 245 -9 52 -18 112 -19 128 0 9 -3 17 -6 17 -3 0 -6 12
-6 28 -1 15 -4 47 -8 72 -20 155 -29 354 -19 417 22 141 95 267 198 345 63 48
258 149 350 182 243 86 537 121 780 90z m85 -55 c-327 -25 -445 -63 -560 -180
-58 -61 -161 -228 -208 -341 -40 -95 -37 -190 11 -333 20 -60 43 -155 52 -210
9 -55 18 -111 20 -125 8 -42 44 -261 55 -330 5 -36 12 -74 14 -85 62 -287 81
-335 132 -335 13 0 42 7 64 16 46 18 48 17 52 -15 3 -21 -5 -26 -65 -47 -65
-22 -70 -22 -102 -7 -31 15 -37 25 -59 97 -41 132 -89 386 -121 646 -20 163
-32 221 -68 335 -30 94 -32 109 -32 250 l0 150 66 135 c59 119 75 143 133 197
100 94 198 138 361 163 72 10 141 21 155 23 14 2 66 4 115 4 l90 0 -105 -8z
m267 -66 l68 -38 -125 -6 c-69 -3 -153 -11 -187 -18 -185 -35 -429 -157 -543
-271 -37 -37 -72 -86 -98 -138 -48 -96 -96 -286 -89 -349 8 -69 -8 -50 -38 48
-56 183 -45 254 71 461 82 144 167 238 258 282 73 35 232 65 391 74 162 9 211
2 292 -45z m96 -92 c9 0 17 -4 17 -8 0 -5 -42 -7 -92 -5 -51 2 -90 0 -85 -4 4
-4 55 -9 113 -10 107 -3 203 -23 223 -47 8 -10 -5 -8 -45 5 -84 28 -404 43
-477 21 -65 -18 -187 -73 -187 -84 0 -4 33 8 74 27 72 33 175 65 206 63 8 0
-16 -9 -54 -20 -79 -22 -211 -81 -238 -106 -18 -16 -18 -16 -12 0 3 9 3 17 0
17 -3 0 -43 -29 -90 -65 -97 -75 -175 -157 -201 -212 -26 -54 -65 -183 -56
-183 5 0 14 21 21 48 33 120 89 208 172 273 l43 33 -52 -56 c-78 -84 -128
-168 -148 -247 -24 -101 -13 -181 58 -401 19 -58 40 -139 47 -180 10 -59 31
-112 95 -245 49 -99 107 -239 139 -334 30 -90 67 -178 81 -197 40 -52 117 -87
195 -88 70 -1 90 -9 90 -32 0 -13 -18 -15 -124 -12 -87 3 -129 8 -141 18 -30
25 -81 140 -150 340 -64 182 -110 290 -171 401 -18 34 -28 70 -33 130 -5 51
-23 128 -45 193 -40 121 -66 236 -66 291 0 19 -5 35 -11 35 -24 0 20 -222 73
-365 19 -52 33 -111 37 -166 5 -55 15 -101 28 -125 101 -195 116 -233 234
-573 18 -51 43 -109 56 -128 13 -19 23 -35 23 -37 0 -2 -17 2 -37 10 -21 7
-45 13 -53 14 -22 0 -112 153 -142 240 -9 25 -32 89 -51 142 -20 54 -33 98
-30 98 3 0 1 6 -4 12 -6 7 -14 31 -18 53 -4 22 -11 46 -17 53 -6 6 -8 12 -5
12 3 0 -2 21 -10 48 -15 49 -16 52 -33 117 -6 22 -13 47 -15 55 -2 8 -11 42
-20 75 -9 33 -34 89 -55 125 -86 142 -100 251 -55 419 63 236 152 335 409 456
61 29 138 60 171 69 111 31 297 47 418 37z m78 -71 c57 -10 200 -78 206 -97 3
-8 -8 -8 -39 -1 -53 12 -177 2 -283 -22 -205 -48 -371 -133 -493 -253 -102
-100 -156 -178 -187 -272 -24 -70 -27 -92 -23 -175 5 -120 37 -195 130 -301
89 -102 90 -103 153 -293 31 -93 65 -187 77 -210 22 -43 137 -235 165 -275
l17 -23 -44 6 c-139 22 -192 63 -229 177 -55 166 -122 331 -186 458 -52 103
-71 152 -81 211 -8 43 -32 131 -54 196 -89 260 -85 378 14 525 104 155 296
291 486 345 54 15 296 18 371 4z m281 -177 c92 -42 181 -147 211 -250 9 -28
21 -114 27 -190 15 -174 25 -215 112 -437 77 -197 187 -512 188 -536 0 -35
-114 -129 -431 -353 -168 -118 -201 -136 -225 -116 -31 26 -169 202 -234 299
-35 52 -101 134 -147 182 -93 99 -121 147 -153 265 -26 97 -64 164 -155 273
-93 111 -105 142 -105 271 0 191 25 262 134 377 49 51 99 91 163 128 143 85
264 114 448 111 98 -2 129 -7 167 -24z m-707 -128 c-16 -13 -33 -24 -37 -25
-14 0 -131 -155 -148 -195 -43 -100 -52 -314 -17 -397 8 -18 48 -76 89 -128
107 -136 139 -196 153 -284 12 -72 76 -177 165 -270 48 -51 115 -133 148 -184
60 -91 143 -198 200 -260 47 -49 73 -44 199 40 103 68 254 176 336 240 21 17
40 28 43 25 5 -5 -180 -157 -303 -247 -102 -75 -191 -130 -210 -130 -28 0
-163 149 -322 355 -197 254 -225 298 -267 419 -48 138 -80 199 -146 273 -34
37 -74 97 -91 132 -43 90 -50 228 -17 348 29 108 94 207 175 268 63 47 102 63
50 20z m957 -95 c19 -38 23 -69 30 -208 9 -186 5 -170 145 -531 125 -324 144
-380 141 -416 -2 -22 -16 8 -55 120 -28 83 -92 258 -143 390 l-91 240 -15 150
c-19 183 -35 255 -74 318 -17 27 -30 51 -30 55 0 15 71 -76 92 -118z m-1177
-122 c-35 -77 -48 -157 -43 -269 6 -119 30 -176 128 -299 63 -79 119 -178 135
-240 20 -80 72 -175 148 -275 34 -44 108 -143 166 -220 111 -149 232 -282 269
-296 12 -5 22 -13 22 -19 0 -5 -10 -10 -22 -11 -13 -1 -54 -3 -92 -5 l-69 -4
-51 52 c-108 112 -207 242 -300 396 -81 134 -98 171 -150 324 -49 146 -86 218
-167 324 -87 116 -94 133 -94 264 0 104 3 121 27 172 26 55 107 172 115 165 2
-2 -8 -29 -22 -59z m-448 -335 c16 -32 42 -79 57 -105 18 -32 45 -117 77 -250
28 -112 68 -257 89 -322 43 -131 42 -141 -15 -152 -54 -10 -71 1 -89 59 -28
91 -63 257 -91 427 -14 91 -40 232 -56 315 -31 160 -35 195 -14 128 8 -23 27
-68 42 -100z"/>
<path d="M963 2694 c7 -7 188 -6 196 1 2 3 -42 5 -99 5 -57 0 -101 -3 -97 -6z"/>
<path d="M304 2065 c0 -71 1 -99 3 -62 2 37 2 96 0 130 -2 34 -3 4 -3 -68z"/>
<path d="M421 1238 c24 -47 72 -99 147 -160 77 -64 124 -98 92 -66 -8 8 -52
45 -96 81 -45 37 -96 89 -114 117 -33 51 -50 67 -29 28z"/>
<path d="M1141 2506 c-12 -14 -5 -26 16 -26 15 0 18 26 4 34 -5 3 -14 0 -20
-8z"/>
<path d="M1443 2274 c-7 -18 14 -35 34 -27 7 3 13 14 13 24 0 24 -38 26 -47 3z"/>
<path d="M1936 2224 c-9 -22 17 -49 39 -40 10 3 15 15 13 28 -4 29 -42 37 -52
12z"/>
<path d="M1776 2061 c-7 -11 18 -33 27 -24 4 3 7 12 7 20 0 15 -26 18 -34 4z"/>
<path d="M1843 1854 c-8 -21 13 -42 28 -27 13 13 5 43 -11 43 -6 0 -13 -7 -17
-16z"/>
<path d="M1537 1654 c-14 -15 -6 -34 14 -34 14 0 19 5 17 17 -3 18 -20 27 -31
17z"/>
<path d="M2170 1600 c0 -13 7 -20 20 -20 13 0 20 7 20 20 0 13 -7 20 -20 20
-13 0 -20 -7 -20 -20z"/>
<path d="M2354 1516 c-10 -26 4 -48 28 -44 17 2 23 10 23 28 0 18 -6 26 -23
28 -13 2 -25 -3 -28 -12z"/>
<path d="M1770 1470 c0 -16 5 -21 23 -18 12 2 22 10 22 18 0 8 -10 16 -22 18
-18 3 -23 -2 -23 -18z"/>
<path d="M2533 1483 c-19 -7 -16 -50 4 -57 24 -10 51 20 37 41 -12 19 -23 24
-41 16z"/>
<path d="M2250 1280 c0 -16 5 -21 23 -18 12 2 22 10 22 18 0 8 -10 16 -22 18
-18 3 -23 -2 -23 -18z"/>
<path d="M2475 1271 c-8 -15 3 -31 21 -31 9 0 14 7 12 17 -4 20 -24 28 -33 14z"/>
<path d="M2591 1106 c-9 -10 -8 -16 3 -25 10 -9 16 -8 25 3 9 10 8 16 -3 25
-10 9 -16 8 -25 -3z"/>
<path d="M2114 1079 c-10 -17 13 -36 27 -22 12 12 4 33 -11 33 -5 0 -12 -5
-16 -11z"/>
<path d="M2631 866 c-12 -14 -5 -26 16 -26 15 0 18 26 4 34 -5 3 -14 0 -20 -8z"/>
<path d="M2392 827 c-14 -17 2 -42 22 -34 20 8 20 21 2 36 -10 8 -16 8 -24 -2z"/>
<path d="M1080 858 c0 -7 4 -19 9 -26 6 -10 10 -10 20 2 7 8 10 20 6 26 -9 14
-35 13 -35 -2z"/>
</g>
</svg>
