<?xml version="1.0" standalone="no"?>
<!DOCTYPE svg PUBLIC "-//W3C//DTD SVG 20010904//EN"
 "http://www.w3.org/TR/2001/REC-SVG-20010904/DTD/svg10.dtd">
<svg version="1.0" xmlns="http://www.w3.org/2000/svg"
 width="300.000000pt" height="300.000000pt" viewBox="0 0 300.000000 300.000000"
 preserveAspectRatio="xMidYMid meet">
<metadata>
Created by potrace 1.10, written by Peter Selinger 2001-2011
</metadata>
<g transform="translate(0.000000,300.000000) scale(0.100000,-0.100000)"
fill="#000000" stroke="none">
<path d="M1525 2975 c-14 -13 -25 -31 -25 -40 0 -13 -9 -14 -55 -9 -104 13
-189 -46 -253 -173 -41 -81 -55 -137 -53 -212 1 -78 18 -106 75 -131 68 -31
196 -6 311 60 105 60 154 144 141 241 -6 47 -6 47 29 59 60 20 57 95 -3 88
-28 -3 -43 -28 -18 -28 9 0 16 -7 16 -16 0 -12 -6 -15 -21 -11 -14 4 -19 2
-16 -8 3 -7 1 -17 -5 -23 -6 -6 -10 -36 -9 -66 1 -31 -5 -70 -12 -88 -15 -35
-71 -98 -86 -98 -5 0 -11 -3 -13 -7 -4 -11 -63 -43 -78 -43 -6 0 -30 -9 -53
-19 -38 -17 -86 -25 -143 -22 -33 2 -78 45 -71 70 3 15 0 21 -10 21 -13 0 -15
8 -10 43 17 121 77 242 149 300 32 25 50 31 120 38 46 4 89 8 97 8 7 1 11 7 8
15 -3 7 0 19 6 25 14 14 30 15 22 1 -11 -17 5 -32 21 -19 20 16 17 47 -5 59
-27 14 -29 13 -56 -15z"/>
<path d="M2537 2942 c-13 -14 -16 -43 -18 -144 l-1 -127 -42 -25 c-51 -30 -89
-73 -112 -126 -3 -8 -22 -49 -42 -90 -20 -41 -37 -77 -37 -80 -1 -3 -10 -23
-22 -45 -11 -22 -40 -78 -64 -125 -24 -47 -50 -91 -56 -98 -7 -7 -13 -19 -13
-25 -1 -13 -71 -124 -94 -147 -8 -9 -19 -28 -25 -43 -6 -15 -15 -27 -21 -27
-5 0 -10 -5 -10 -11 0 -6 -6 -16 -12 -24 -7 -7 -22 -25 -32 -39 -11 -15 -29
-37 -40 -50 -12 -13 -41 -47 -66 -76 -56 -66 -130 -141 -201 -202 -51 -44 -67
-57 -118 -100 -12 -10 -24 -18 -27 -18 -5 0 -23 -14 -55 -43 -10 -9 -23 -17
-28 -17 -5 0 -14 -7 -22 -16 -7 -8 -29 -24 -48 -34 -20 -10 -47 -28 -61 -40
l-25 -22 30 8 c79 20 396 270 532 421 133 147 260 320 356 484 36 62 174 336
215 425 23 52 48 85 88 123 31 28 60 51 64 51 15 0 20 33 20 145 0 125 0 125
70 125 44 0 58 -13 58 -55 0 -16 0 -73 1 -126 l1 -96 40 -45 c60 -69 76 -115
110 -312 25 -150 3 -363 -56 -541 -39 -118 -51 -147 -94 -233 -23 -46 -40 -93
-38 -105 2 -17 10 -8 34 38 17 33 36 69 42 80 27 49 84 195 76 195 -4 0 -1 6
5 14 11 13 16 28 26 81 2 11 9 38 14 60 6 22 14 65 18 95 13 104 6 371 -11
399 -3 5 -8 29 -11 52 -8 59 -45 137 -83 176 -46 45 -52 70 -52 207 0 81 -4
126 -12 134 -20 20 -132 15 -151 -6z"/>
<path d="M1617 2932 c-23 -25 -21 -34 6 -30 19 3 22 -1 18 -27 -3 -30 -3 -30
18 -11 26 24 27 62 2 76 -25 13 -25 13 -44 -8z"/>
<path d="M1372 2834 c-30 -21 -27 -70 6 -92 12 -8 22 -10 22 -4 0 5 -9 12 -20
15 -29 7 -28 62 1 78 29 15 67 -5 72 -40 l4 -26 2 27 c0 18 -7 32 -21 42 -28
20 -38 20 -66 0z"/>
<path d="M1520 2720 c-12 -8 -11 -10 7 -10 46 0 64 -72 22 -85 -46 -15 -79 25
-58 69 10 20 10 21 -5 2 -9 -11 -16 -27 -16 -36 0 -31 -74 -52 -98 -28 -28 28
-7 78 34 78 24 0 39 -15 47 -45 4 -16 5 -15 6 6 2 50 -82 67 -105 21 -16 -33
-6 -63 27 -75 l28 -11 -36 -22 -37 -22 -27 20 c-35 26 -60 17 -86 -31 l-20
-38 27 -17 c36 -21 62 -20 90 2 23 18 24 18 42 0 36 -36 101 -14 101 36 0 15
-8 35 -16 44 -15 14 -14 17 5 33 15 14 25 16 39 9 70 -38 133 35 76 88 -27 25
-27 25 -47 12z m-219 -140 c12 -7 19 -21 19 -38 0 -49 -37 -67 -72 -35 -24 22
-23 49 4 67 27 19 24 19 49 6z m137 -12 c18 -18 15 -43 -8 -63 -17 -15 -24
-16 -45 -7 -43 20 -28 82 20 82 12 0 26 -5 33 -12z"/>
<path d="M1239 2703 c-11 -15 -11 -16 1 -5 31 27 80 8 80 -33 0 -41 -49 -60
-80 -32 -12 10 -12 9 -1 -5 15 -21 61 -24 79 -6 20 20 15 76 -7 88 -29 15 -57
12 -72 -7z"/>
<path d="M1766 2388 c-9 -12 -16 -27 -16 -33 0 -5 -21 -10 -46 -10 -36 0 -49
-5 -64 -25 -11 -14 -20 -36 -20 -50 0 -24 1 -24 33 12 25 30 42 38 79 44 34 4
49 11 53 25 7 22 25 25 25 5 0 -24 18 -28 30 -6 26 49 -42 84 -74 38z"/>
<path d="M729 2367 c-128 -48 -198 -148 -199 -282 0 -120 56 -211 162 -264
147 -74 321 -16 401 134 32 59 31 202 -1 264 -30 56 -78 104 -133 132 -55 28
-176 36 -230 16z m196 -33 c35 -12 51 -24 58 -44 6 -14 20 -31 31 -36 31 -13
75 -110 76 -165 1 -156 -137 -281 -294 -266 -62 6 -106 26 -136 64 -11 15 -32
34 -46 42 -48 29 -69 152 -43 245 14 49 110 147 159 163 53 17 141 15 195 -3z"/>
<path d="M737 2262 c-21 -23 -21 -36 -2 -52 13 -11 15 -8 15 13 0 25 2 26 63
24 58 -2 62 -3 59 -24 -4 -28 14 -31 23 -4 14 45 -31 76 -66 45 -18 -16 -20
-16 -37 -1 -24 22 -35 21 -55 -1z"/>
<path d="M736 2171 c-32 -35 3 -82 48 -65 25 10 19 24 -10 24 -23 0 -26 3 -22
30 5 35 6 35 -16 11z"/>
<path d="M870 2158 c0 -29 -16 -40 -42 -26 -13 6 -16 5 -12 -6 3 -8 13 -17 21
-20 42 -17 80 32 49 62 -15 15 -16 14 -16 -10z"/>
<path d="M1856 2341 c-16 -18 -16 -19 9 -25 20 -5 25 -11 20 -26 -8 -25 7 -26
28 -2 22 24 21 35 -1 55 -24 22 -35 21 -56 -2z"/>
<path d="M1470 2275 c-31 -33 -32 -87 -2 -117 25 -25 39 -19 23 10 -15 27 -14
75 1 90 16 16 57 15 91 -2 32 -17 36 -5 7 24 -30 30 -90 27 -120 -5z"/>
<path d="M1910 2259 c-11 -8 -12 -12 -2 -16 14 -6 16 -33 2 -33 -5 0 -9 -3 -8
-7 6 -27 -19 -87 -49 -118 l-34 -35 26 0 c15 0 37 11 52 26 21 21 25 32 20 64
-4 35 -3 38 27 47 27 8 31 13 31 43 0 30 -4 35 -25 38 -14 1 -32 -3 -40 -9z"/>
<path d="M1425 2105 c-32 -31 -34 -93 -5 -120 24 -22 36 -14 21 13 -20 37 -13
70 19 94 17 12 30 25 30 30 0 17 -42 7 -65 -17z"/>
<path d="M1829 1995 c15 -44 15 -45 -7 -67 -20 -20 -25 -21 -64 -11 -24 6 -45
9 -48 6 -10 -9 51 -53 74 -53 29 0 75 35 86 66 11 29 -5 81 -30 94 -28 15 -29
13 -11 -35z"/>
<path d="M1379 1931 c-20 -20 -29 -39 -29 -61 0 -43 47 -90 90 -90 38 0 90 47
90 81 0 21 1 21 21 -5 43 -55 149 -18 149 53 l-1 26 -27 -32 c-35 -40 -63 -48
-102 -28 -34 18 -44 14 -79 -28 -30 -36 -79 -35 -98 2 -10 21 -9 29 8 53 11
15 32 31 47 35 24 6 25 7 7 14 -34 13 -46 10 -76 -20z"/>
<path d="M335 1730 c-17 -19 -17 -23 18 -133 56 -174 120 -259 260 -346 87
-54 92 -29 6 30 -128 87 -183 162 -229 310 -37 118 -37 123 -6 115 24 -6 139
-76 186 -114 39 -31 79 -116 97 -208 19 -100 38 -102 30 -3 -6 76 -42 161 -89
215 -16 18 -64 55 -106 81 -43 25 -84 53 -93 60 -23 19 -53 16 -74 -7z"/>
<path d="M1067 1666 c-47 -23 -112 -63 -142 -86 -81 -62 -170 -171 -200 -245
-15 -35 -15 -35 5 -23 12 7 35 35 51 62 41 65 162 186 224 222 111 66 176 85
183 53 2 -13 -5 -17 -30 -17 -47 0 -80 -15 -166 -75 -103 -71 -187 -174 -239
-292 -12 -27 -27 -49 -32 -47 -6 1 -11 -3 -11 -9 0 -6 7 -8 16 -5 9 3 19 6 22
6 4 0 27 37 52 82 61 112 178 230 278 282 54 28 77 35 85 27 28 -28 85 9 72
48 -7 22 -51 61 -69 61 -7 0 -51 -20 -99 -44z"/>
<path d="M2360 1580 c-19 -19 -20 -33 -20 -244 0 -191 2 -227 16 -240 39 -39
74 -5 74 71 0 66 -7 68 -11 3 -4 -62 -8 -70 -34 -70 -31 0 -39 37 -30 143 9
100 12 150 14 244 1 91 16 99 93 49 105 -66 148 -133 203 -309 27 -86 28 -117
3 -117 -8 0 -56 28 -108 62 -127 84 -128 84 -105 58 25 -29 211 -150 230 -150
8 0 21 10 30 23 16 25 12 45 -31 175 -38 116 -112 212 -216 281 -69 47 -80 49
-108 21z"/>
<path d="M2276 1259 c-14 -11 -33 -34 -41 -49 -22 -42 -18 -50 5 -12 11 19 33
44 48 57 33 30 25 33 -12 4z"/>
<path d="M363 1235 c-113 -31 -196 -90 -257 -183 -90 -136 -106 -305 -45 -482
82 -241 251 -430 437 -492 79 -26 345 -26 424 0 229 76 432 349 468 630 27
205 -68 405 -230 486 -38 19 -96 40 -127 47 -95 19 -253 -2 -253 -34 0 -5 12
-6 28 -3 15 4 65 10 112 13 71 4 96 1 150 -17 94 -31 147 -65 170 -108 10 -20
19 -30 20 -22 0 9 13 1 33 -22 88 -99 108 -310 46 -495 -38 -116 -202 -316
-319 -393 -98 -63 -147 -73 -333 -68 -153 4 -165 5 -220 32 -32 15 -61 34 -64
41 -2 8 -18 17 -35 20 -17 4 -43 21 -58 39 -15 17 -40 44 -54 59 -142 152
-229 410 -197 582 29 157 143 290 287 335 72 22 194 27 240 10 17 -7 31 -7 37
-1 14 14 -87 41 -152 40 -31 0 -80 -7 -108 -14z"/>
<path d="M2044 1078 c-46 -34 -124 -111 -136 -133 -6 -11 18 10 53 46 35 36
78 75 94 87 17 12 27 22 24 22 -4 0 -19 -10 -35 -22z"/>
<path d="M2710 1077 c0 -2 30 -35 66 -73 79 -82 102 -116 140 -209 26 -65 28
-80 29 -200 0 -121 -2 -135 -29 -200 -16 -38 -39 -84 -52 -102 -13 -17 -24
-36 -24 -41 0 -5 -24 -31 -52 -58 -84 -78 -161 -122 -259 -147 -29 -8 -55 -19
-57 -26 -5 -14 22 -14 68 0 19 5 43 12 53 14 46 10 157 84 217 144 76 76 143
199 161 296 19 99 6 247 -28 330 -38 93 -93 174 -155 230 -42 37 -78 57 -78
42z"/>
<path d="M1795 551 c3 -62 23 -145 48 -201 49 -108 158 -225 262 -281 49 -27
153 -59 188 -59 42 0 22 14 -53 36 -152 44 -292 156 -353 284 -37 76 -67 174
-67 218 0 13 -6 30 -14 37 -11 12 -13 6 -11 -34z"/>
<path d="M1700 566 c-25 -13 -90 -38 -145 -56 -55 -19 -109 -37 -120 -41 -11
-4 -41 -13 -67 -20 -26 -7 -50 -19 -53 -27 -3 -10 1 -11 16 -7 12 4 29 9 38
10 9 2 16 4 16 5 0 1 14 4 30 6 42 6 122 31 172 55 24 10 48 19 53 19 6 0 25
8 43 17 18 9 35 16 38 16 3 -1 18 9 35 22 25 21 26 24 9 24 -11 0 -40 -10 -65
-23z"/>
</g>
</svg>
