<?xml version="1.0" standalone="no"?>
<!DOCTYPE svg PUBLIC "-//W3C//DTD SVG 20010904//EN"
 "http://www.w3.org/TR/2001/REC-SVG-20010904/DTD/svg10.dtd">
<svg version="1.0" xmlns="http://www.w3.org/2000/svg"
 width="300.000000pt" height="300.000000pt" viewBox="0 0 300.000000 300.000000"
 preserveAspectRatio="xMidYMid meet">
<metadata>
Created by potrace 1.10, written by Peter Selinger 2001-2011
</metadata>
<g transform="translate(0.000000,300.000000) scale(0.100000,-0.100000)"
fill="#000000" stroke="none">
<path d="M1280 2983 c-316 -48 -591 -185 -823 -412 -210 -204 -344 -436 -413
-716 -29 -116 -45 -338 -21 -275 8 19 22 78 31 132 72 426 294 772 642 1004
166 111 335 176 577 224 181 36 212 50 107 48 -41 0 -86 -2 -100 -5z"/>
<path d="M1576 2976 c17 -8 73 -22 125 -31 246 -42 436 -116 621 -241 327
-222 546 -565 618 -966 12 -65 28 -135 36 -155 14 -36 14 -33 10 67 -10 202
-95 459 -214 644 -101 157 -285 349 -421 440 -228 152 -477 241 -701 251 -97
5 -103 4 -74 -9z"/>
<path d="M1274 2834 c-294 -49 -590 -215 -786 -440 -222 -255 -338 -562 -338
-894 0 -630 425 -1165 1050 -1321 84 -21 118 -24 300 -24 221 0 302 13 460 72
536 201 890 707 890 1273 0 659 -477 1223 -1129 1334 -115 19 -333 20 -447 0z
m534 -58 c245 -61 442 -174 622 -355 182 -184 300 -400 355 -651 22 -103 31
-336 16 -441 -29 -203 -109 -411 -223 -577 -67 -98 -231 -262 -328 -328 -144
-99 -305 -169 -485 -210 -111 -26 -404 -27 -522 -1 -263 57 -476 171 -664 357
-182 181 -293 377 -356 627 -25 99 -28 124 -28 303 0 179 3 204 28 303 91 364
324 670 645 846 219 120 399 162 667 156 141 -3 188 -8 273 -29z"/>
<path d="M1441 2224 l-31 -26 0 -304 0 -304 -304 0 -304 0 -26 -31 c-15 -17
-26 -43 -26 -59 0 -16 11 -42 26 -59 l26 -31 304 0 304 0 0 -304 0 -304 31
-26 c39 -33 79 -33 118 0 l31 26 0 304 0 304 304 0 304 0 26 31 c33 39 33 79
0 118 l-26 31 -304 0 -304 0 0 304 0 304 -31 26 c-17 15 -43 26 -59 26 -16 0
-42 -11 -59 -26z m99 -43 c6 -12 10 -124 10 -295 l0 -274 26 -31 26 -31 289 0
289 0 16 -25 c15 -23 15 -27 0 -50 l-16 -25 -286 0 -286 0 -29 -29 -29 -29 0
-286 0 -286 -25 -16 c-23 -15 -27 -15 -50 0 l-24 16 -3 291 -3 291 -28 24 -28
24 -284 0 -285 0 -16 25 c-15 23 -15 27 0 50 l16 25 288 0 289 0 24 26 24 26
3 286 c2 185 7 291 14 299 16 20 66 16 78 -6z"/>
<path d="M14 1350 c12 -244 117 -521 284 -745 95 -127 267 -286 408 -377 185
-119 442 -204 644 -213 97 -5 103 -4 75 9 -16 9 -38 15 -47 16 -43 1 -265 52
-347 79 -303 102 -580 318 -755 588 -108 168 -182 358 -221 572 -33 180 -47
204 -41 71z"/>
<path d="M2971 1418 c-6 -18 -17 -76 -26 -128 -93 -551 -454 -988 -966 -1168
-77 -27 -312 -81 -357 -82 -9 -1 -30 -7 -47 -16 -28 -13 -22 -14 75 -9 322 14
666 179 921 442 198 203 318 419 385 688 23 92 45 305 31 305 -3 0 -10 -15
-16 -32z"/>
</g>
</svg>
