<?xml version="1.0" standalone="no"?>
<!DOCTYPE svg PUBLIC "-//W3C//DTD SVG 20010904//EN"
 "http://www.w3.org/TR/2001/REC-SVG-20010904/DTD/svg10.dtd">
<svg version="1.0" xmlns="http://www.w3.org/2000/svg"
 width="300.000000pt" height="300.000000pt" viewBox="0 0 300.000000 300.000000"
 preserveAspectRatio="xMidYMid meet">
<metadata>
Created by potrace 1.10, written by Peter Selinger 2001-2011
</metadata>
<g transform="translate(0.000000,300.000000) scale(0.100000,-0.100000)"
fill="#000000" stroke="none">
<path d="M1095 2944 c-54 -17 -117 -72 -134 -117 -10 -26 -13 -27 -91 -27 -82
0 -126 -12 -114 -32 4 -7 9 -6 15 3 6 10 36 15 95 18 85 3 114 14 114 41 0 20
61 77 98 92 73 28 162 8 212 -48 16 -19 30 -39 30 -44 0 -6 4 -10 10 -10 14 0
0 32 -29 64 -25 27 -67 51 -83 48 -5 -1 -8 3 -8 9 0 6 -9 9 -20 6 -11 -3 -23
-1 -26 4 -7 11 -8 11 -69 -7z"/>
<path d="M1337 2798 c2 -5 42 -8 88 -8 61 0 88 -4 99 -15 8 -8 17 -11 20 -6
12 19 -23 29 -116 33 -53 1 -94 0 -91 -4z"/>
<path d="M159 2727 c-24 -13 -57 -43 -74 -66 l-30 -43 -3 -1157 -2 -1157 23
-45 c13 -24 43 -57 66 -74 l43 -30 534 -3 c517 -2 534 -3 534 -21 0 -11 14
-33 31 -50 l31 -31 788 0 788 0 31 31 31 31 1 691 c1 381 1 699 -1 707 -1 8
-74 88 -163 178 l-162 162 -185 -2 c-115 -2 -185 -7 -185 -13 0 -6 68 -10 183
-11 l183 0 143 -144 c79 -78 151 -156 161 -172 33 -56 24 -58 -278 -58 -149 0
-268 -2 -265 -5 3 -3 125 -6 272 -6 196 0 266 -4 266 -12 2 -1220 1 -1310 -18
-1329 -17 -17 -55 -18 -801 -19 l-784 0 -23 22 c-13 12 -24 28 -24 36 0 7 -4
13 -10 13 -14 0 -13 197 1 202 8 3 11 161 11 545 l0 541 261 1 c143 0 262 3
265 6 3 3 -112 5 -254 5 -177 0 -264 4 -271 11 -22 22 9 66 157 214 l149 149
190 1 c138 0 193 3 203 13 10 9 -29 12 -192 12 l-204 0 -163 -163 -163 -163 0
-587 0 -587 -484 0 c-427 0 -486 2 -500 16 -14 14 -16 126 -16 1084 0 958 2
1070 16 1084 13 14 51 16 256 16 l240 0 30 -25 30 -25 328 0 329 0 28 26 28
26 -36 -21 c-34 -19 -50 -20 -351 -20 l-316 0 -41 29 -41 30 0 90 0 90 -273 0
c-267 0 -275 -1 -318 -23z m519 -11 c6 -3 12 0 15 6 4 10 7 10 18 0 9 -8 14
-37 15 -77 0 -63 0 -65 -25 -65 -14 0 -117 -1 -228 -3 -230 -2 -231 -3 -243
-81 -4 -25 -6 -510 -5 -1078 1 -777 4 -1038 13 -1055 7 -12 22 -25 34 -30 13
-4 216 -8 453 -9 237 0 447 -1 468 -2 l37 -2 0 -70 c0 -60 -3 -70 -17 -71 -86
-6 -933 -3 -982 3 -66 8 -105 32 -134 83 -12 20 -28 455 -17 455 3 0 5 16 5
35 0 19 -3 35 -7 35 -4 0 -5 51 -3 112 3 62 4 133 3 158 -1 25 -1 381 -1 791
l0 746 22 40 c24 42 66 72 113 82 38 8 453 5 466 -3z"/>
<path d="M1550 2666 c0 -46 -3 -91 -6 -100 -6 -14 19 -16 234 -16 205 0 243
-2 256 -16 14 -13 16 -59 16 -349 l0 -334 -26 -3 c-25 -3 -32 -17 -100 -202
l-74 -199 0 -183 c0 -153 3 -185 16 -198 23 -24 445 -24 468 0 13 13 16 45 16
199 l0 183 -69 184 c-38 101 -72 191 -76 201 -6 14 -2 17 19 17 l27 0 -3 384
-3 384 -30 43 c-16 23 -50 53 -74 66 -43 22 -51 23 -318 23 l-273 0 0 -84z
m575 41 c17 -8 40 -26 51 -39 49 -53 49 -52 50 -428 0 -328 -1 -356 -17 -372
-10 -10 -24 -18 -31 -18 -7 0 -20 -5 -28 -11 -12 -9 -11 -10 8 -6 28 6 28 7
101 -190 32 -87 62 -166 66 -175 7 -17 -8 -18 -225 -18 -217 0 -232 1 -225 18
4 9 34 89 68 177 58 156 72 185 85 183 4 0 20 0 35 1 20 1 26 5 20 14 -4 6 -8
125 -9 262 -1 421 -1 419 -25 446 -20 24 -24 24 -202 25 -100 1 -203 2 -228 3
l-47 1 2 68 c1 42 6 69 13 72 7 3 124 5 260 4 203 -1 254 -4 278 -17z m205
-1436 c0 -93 -3 -176 -6 -185 -5 -14 -35 -16 -224 -16 -189 0 -219 2 -224 16
-3 9 -6 92 -6 184 l0 169 230 1 230 0 0 -169z"/>
<path d="M2110 1840 c0 -5 5 -10 10 -10 6 0 10 5 10 10 0 6 -4 10 -10 10 -5 0
-10 -4 -10 -10z"/>
<path d="M874 2242 c-6 -4 -48 -63 -94 -132 -46 -69 -84 -126 -85 -128 -2 -2
-19 13 -39 32 -38 39 -66 45 -90 20 -29 -28 -18 -54 49 -120 63 -61 86 -73
111 -56 20 13 224 327 224 344 0 35 -47 60 -76 40z m46 -39 c0 -10 -36 -72
-81 -138 -44 -66 -89 -135 -101 -152 -11 -18 -27 -33 -36 -33 -22 0 -122 100
-122 122 0 27 15 29 41 7 42 -37 66 -50 82 -43 9 3 50 59 92 124 42 65 82 121
88 124 24 9 37 6 37 -11z"/>
<path d="M874 1642 c-6 -4 -48 -63 -94 -132 -46 -69 -84 -127 -86 -128 -1 -2
-18 12 -37 32 -38 39 -66 45 -91 20 -28 -27 -18 -52 49 -119 62 -62 86 -74
111 -57 20 13 224 327 224 344 0 35 -47 60 -76 40z m46 -40 c0 -16 -104 -183
-146 -235 -8 -9 -14 -20 -14 -23 0 -14 -46 -64 -59 -64 -22 0 -121 100 -121
122 0 30 39 21 72 -16 26 -30 33 -33 50 -23 17 11 92 118 141 201 32 53 77 76
77 38z"/>
<path d="M874 1042 c-6 -4 -48 -63 -94 -132 -46 -69 -84 -126 -85 -128 -2 -2
-19 13 -39 32 -38 39 -66 45 -90 20 -28 -27 -18 -52 48 -119 60 -61 86 -75
112 -57 20 13 224 327 224 344 0 35 -47 60 -76 40z m44 -44 c-8 -41 -198 -318
-217 -318 -23 0 -116 95 -116 118 0 28 29 25 63 -8 18 -16 39 -30 47 -30 9 0
53 57 100 130 65 98 90 130 106 130 17 0 20 -5 17 -22z"/>
<path d="M2339 509 c-21 -22 -39 -49 -39 -59 0 -20 25 -50 41 -50 5 0 9 -38 9
-84 0 -89 11 -116 50 -116 39 0 50 27 50 116 0 46 4 84 9 84 17 0 41 31 41 52
0 27 -72 98 -100 98 -12 0 -38 -17 -61 -41z m110 -14 c37 -43 38 -49 6 -77
-23 -20 -25 -29 -25 -104 0 -74 -2 -83 -20 -89 -33 -11 -40 3 -40 85 0 87 -5
110 -26 110 -8 0 -14 2 -14 4 0 2 -3 11 -6 19 -7 19 52 87 76 87 10 0 32 -16
49 -35z"/>
<path d="M2640 509 c-22 -22 -40 -49 -40 -59 0 -20 25 -50 41 -50 5 0 9 -38 9
-84 0 -89 11 -116 50 -116 39 0 50 27 50 116 0 46 4 84 9 84 17 0 41 31 41 52
0 27 -72 98 -98 98 -12 0 -39 -18 -62 -41z m105 -12 c25 -25 32 -40 28 -55 -3
-12 -11 -22 -18 -22 -20 0 -25 -24 -25 -111 0 -43 -2 -79 -4 -79 -2 0 -12 -3
-22 -7 -12 -4 -15 -3 -10 5 5 8 2 10 -8 6 -14 -5 -16 6 -16 74 0 89 -5 112
-26 112 -8 0 -14 2 -14 4 0 2 -3 12 -7 22 -4 12 -3 15 5 10 8 -4 10 -2 6 7 -5
14 48 67 68 67 5 0 25 -15 43 -33z"/>
<path d="M1543 520 c-108 -7 -112 -12 -113 -143 0 -95 1 -99 29 -127 l29 -29
142 3 c136 4 144 5 167 29 23 22 25 32 25 119 0 96 -10 130 -42 144 -19 9
-131 10 -237 4z m241 -36 c12 -12 16 -37 16 -109 0 -128 4 -125 -175 -125
-179 0 -175 -3 -175 125 0 128 -4 125 175 125 117 0 146 -3 159 -16z"/>
</g>
</svg>
