<?xml version="1.0" standalone="no"?>
<!DOCTYPE svg PUBLIC "-//W3C//DTD SVG 20010904//EN"
 "http://www.w3.org/TR/2001/REC-SVG-20010904/DTD/svg10.dtd">
<svg version="1.0" xmlns="http://www.w3.org/2000/svg"
 width="300.000000pt" height="300.000000pt" viewBox="0 0 300.000000 300.000000"
 preserveAspectRatio="xMidYMid meet">
<metadata>
Created by potrace 1.10, written by Peter Selinger 2001-2011
</metadata>
<g transform="translate(0.000000,300.000000) scale(0.100000,-0.100000)"
fill="#000000" stroke="none">
<path d="M0 1500 l0 -1500 1500 0 1500 0 0 1500 0 1500 -1500 0 -1500 -1 0
-1499z m1164 1451 c3 -5 15 -7 26 -4 11 3 20 0 20 -6 0 -6 3 -10 8 -9 16 3 58
-21 83 -48 29 -32 43 -64 29 -64 -6 0 -10 4 -10 10 0 5 -14 25 -30 44 -50 56
-139 76 -212 48 -37 -15 -98 -72 -98 -92 0 -27 -29 -38 -114 -41 -59 -3 -89
-8 -95 -18 -6 -9 -11 -10 -15 -3 -12 20 32 32 114 32 78 0 81 1 91 27 17 45
80 100 134 117 61 18 62 18 69 7z m373 -163 c7 -6 10 -14 7 -19 -3 -5 -12 -2
-20 6 -11 11 -38 15 -99 15 -46 0 -86 3 -88 8 -7 11 186 2 200 -10z m-787
-128 l0 -90 41 -30 41 -29 316 0 c301 0 317 1 351 20 l36 21 -28 -26 -28 -26
-329 0 -328 0 -30 25 -30 25 -240 0 c-205 0 -243 -2 -256 -16 -14 -14 -16
-126 -16 -1084 0 -958 2 -1070 16 -1084 14 -14 73 -16 500 -16 l484 0 0 587 0
587 163 163 163 163 204 0 c163 0 202 -3 192 -12 -10 -10 -65 -13 -203 -13
l-190 -1 -149 -149 c-148 -148 -179 -192 -157 -214 7 -7 94 -11 271 -11 142 0
257 -2 254 -5 -3 -3 -122 -6 -265 -6 l-261 -1 0 -541 c0 -384 -3 -542 -11
-545 -14 -5 -15 -202 -1 -202 6 0 10 -6 10 -13 0 -8 11 -24 24 -36 l23 -22
784 0 c746 1 784 2 801 19 19 19 20 109 18 1329 0 8 -70 12 -266 12 -147 0
-269 3 -272 6 -3 3 116 5 265 5 302 0 311 2 278 58 -10 16 -82 94 -161 172
l-143 144 -183 0 c-115 1 -183 5 -183 11 0 6 70 11 185 13 l185 2 162 -162
c89 -90 162 -170 163 -178 2 -8 2 -326 1 -707 l-1 -691 -31 -31 -31 -31 -788
0 -788 0 -31 31 c-17 17 -31 39 -31 50 0 18 -17 19 -534 21 l-534 3 -43 30
c-23 17 -53 50 -66 74 l-23 45 2 1157 3 1157 30 43 c17 23 50 53 74 66 43 22
51 23 318 23 l273 0 0 -90z m1391 67 c24 -13 58 -43 74 -66 l30 -43 3 -384 3
-384 -27 0 c-21 0 -25 -3 -19 -17 4 -10 38 -100 76 -201 l69 -184 0 -183 c0
-154 -3 -186 -16 -199 -23 -24 -445 -24 -468 0 -13 13 -16 45 -16 198 l0 183
74 199 c68 185 75 199 100 202 l26 3 0 334 c0 290 -2 336 -16 349 -13 14 -51
16 -256 16 -215 0 -240 2 -234 16 3 9 6 54 6 100 l0 84 273 0 c267 0 275 -1
318 -23z m-1207 -493 c9 -8 16 -23 16 -32 0 -17 -204 -331 -224 -344 -25 -17
-48 -5 -111 56 -67 66 -78 92 -49 120 24 25 52 19 90 -20 20 -19 37 -34 39
-32 1 2 39 59 85 128 46 69 88 128 94 132 18 12 44 9 60 -8z m0 -600 c9 -8 16
-23 16 -32 0 -17 -204 -331 -224 -344 -25 -17 -49 -5 -111 57 -67 67 -77 92
-49 119 25 25 53 19 91 -20 19 -20 36 -34 37 -32 2 1 40 59 86 128 46 69 88
128 94 132 18 12 44 9 60 -8z m0 -600 c9 -8 16 -23 16 -32 0 -17 -204 -331
-224 -344 -26 -18 -52 -4 -112 57 -66 67 -76 92 -48 119 24 25 52 19 90 -20
20 -19 37 -34 39 -32 1 2 39 59 85 128 46 69 88 128 94 132 18 12 44 9 60 -8z
m1527 -523 c22 -21 39 -48 39 -59 0 -21 -24 -52 -41 -52 -5 0 -9 -38 -9 -84 0
-89 -11 -116 -50 -116 -39 0 -50 27 -50 116 0 46 -4 84 -9 84 -16 0 -41 30
-41 50 0 26 74 100 100 100 13 0 40 -17 61 -39z m300 0 c22 -21 39 -48 39 -59
0 -21 -24 -52 -41 -52 -5 0 -9 -38 -9 -84 0 -89 -11 -116 -50 -116 -39 0 -50
27 -50 116 0 46 -4 84 -9 84 -16 0 -41 30 -41 50 0 25 76 100 102 100 11 0 38
-17 59 -39z m-981 5 c32 -14 42 -48 42 -144 0 -87 -2 -97 -25 -119 -23 -24
-31 -25 -167 -29 l-142 -3 -29 29 c-28 28 -29 32 -29 127 1 131 5 136 113 143
106 6 218 5 237 -4z"/>
<path d="M212 2719 c-47 -10 -89 -40 -113 -82 l-22 -40 0 -746 c0 -410 0 -766
1 -791 1 -25 0 -96 -3 -158 -2 -61 -1 -112 3 -112 4 0 7 -16 7 -35 0 -19 -2
-35 -5 -35 -11 0 5 -435 17 -455 29 -51 68 -75 134 -83 49 -6 896 -9 982 -3
14 1 17 11 17 71 l0 70 -37 2 c-21 1 -231 2 -468 2 -237 1 -440 5 -453 9 -12
5 -27 18 -34 30 -9 17 -12 278 -13 1055 -1 568 1 1053 5 1078 12 78 13 79 243
81 111 2 214 3 228 3 25 0 25 2 25 65 -1 40 -6 69 -15 77 -11 10 -14 10 -18 0
-3 -6 -9 -9 -15 -6 -13 8 -428 11 -466 3z"/>
<path d="M1587 2720 c-7 -3 -12 -30 -13 -72 l-2 -68 47 -1 c25 -1 128 -2 228
-3 178 -1 182 -1 202 -25 24 -27 24 -25 25 -446 1 -137 5 -256 9 -262 6 -9 0
-13 -20 -14 -15 -1 -31 -1 -35 -1 -13 2 -27 -27 -85 -183 -34 -88 -64 -168
-68 -177 -7 -17 8 -18 225 -18 217 0 232 1 225 18 -4 9 -34 88 -66 175 -73
197 -73 196 -101 190 -19 -4 -20 -3 -8 6 8 6 21 11 28 11 7 0 21 8 31 18 16
16 17 44 17 372 -1 376 -1 375 -50 428 -47 52 -63 55 -329 56 -136 1 -253 -1
-260 -4z m543 -880 c0 -5 -4 -10 -10 -10 -5 0 -10 5 -10 10 0 6 5 10 10 10 6
0 10 -4 10 -10z"/>
<path d="M1870 1270 c0 -92 3 -175 6 -184 5 -14 35 -16 224 -16 189 0 219 2
224 16 3 9 6 92 6 185 l0 169 -230 0 -230 -1 0 -169z"/>
<path d="M883 2214 c-6 -3 -46 -59 -88 -124 -42 -65 -83 -121 -92 -124 -16 -7
-40 6 -82 43 -26 22 -41 20 -41 -7 0 -22 100 -122 122 -122 9 0 25 15 36 33
12 17 57 86 101 152 91 136 102 172 44 149z"/>
<path d="M878 1608 c-9 -7 -25 -27 -35 -44 -49 -83 -124 -190 -141 -201 -17
-10 -24 -7 -50 23 -33 37 -72 46 -72 16 0 -22 99 -122 121 -122 13 0 59 50 59
64 0 3 6 14 14 23 42 52 146 219 146 235 0 21 -19 24 -42 6z"/>
<path d="M795 890 c-47 -73 -91 -130 -100 -130 -8 0 -29 14 -47 30 -34 33 -63
36 -63 8 0 -23 93 -118 116 -118 12 0 49 48 115 148 105 159 120 192 85 192
-16 0 -41 -32 -106 -130z"/>
<path d="M2350 494 c-18 -21 -29 -43 -26 -51 3 -8 6 -17 6 -19 0 -2 6 -4 14
-4 21 0 26 -23 26 -110 0 -82 7 -96 40 -85 18 6 20 15 20 89 0 75 2 84 25 104
14 12 25 26 25 32 0 18 -62 80 -80 80 -10 0 -32 -16 -50 -36z"/>
<path d="M2660 504 c-18 -16 -29 -33 -26 -41 4 -9 2 -11 -6 -7 -8 5 -9 2 -5
-10 4 -10 7 -20 7 -22 0 -2 6 -4 14 -4 21 0 26 -23 26 -112 0 -68 2 -79 16
-74 10 4 13 2 8 -6 -5 -8 -2 -9 10 -5 10 4 20 7 22 7 2 0 4 36 4 79 0 87 5
111 25 111 7 0 15 10 18 22 4 15 -3 30 -28 55 -18 18 -38 33 -43 33 -6 0 -25
-12 -42 -26z"/>
<path d="M1466 484 c-12 -12 -16 -37 -16 -109 0 -128 -4 -125 175 -125 179 0
175 -3 175 125 0 128 4 125 -175 125 -117 0 -146 -3 -159 -16z"/>
</g>
</svg>
