<?xml version="1.0" standalone="no"?>
<!DOCTYPE svg PUBLIC "-//W3C//DTD SVG 20010904//EN"
 "http://www.w3.org/TR/2001/REC-SVG-20010904/DTD/svg10.dtd">
<svg version="1.0" xmlns="http://www.w3.org/2000/svg"
 width="300.000000pt" height="300.000000pt" viewBox="0 0 300.000000 300.000000"
 preserveAspectRatio="xMidYMid meet">
<metadata>
Created by potrace 1.10, written by Peter Selinger 2001-2011
</metadata>
<g transform="translate(0.000000,300.000000) scale(0.100000,-0.100000)"
fill="#000000" stroke="none">
<path d="M1445 2965 c-51 -18 -120 -91 -134 -141 -6 -21 -11 -113 -11 -204
l-1 -165 -34 -40 -35 -40 0 66 c0 71 -16 99 -57 99 -36 0 -53 -31 -53 -99 l0
-63 -51 56 c-59 65 -97 74 -125 31 -22 -33 -13 -51 56 -120 l60 -59 -62 -17
-62 -17 -33 38 c-35 40 -122 90 -158 90 -12 0 -24 2 -27 5 -2 3 10 62 29 132
39 153 41 198 11 243 -39 57 -72 75 -137 75 -47 0 -64 -5 -92 -26 l-35 -27
-36 34 c-60 54 -148 58 -208 7 -43 -36 -63 -79 -57 -123 4 -35 4 -36 -24 -32
-40 6 -114 -33 -139 -72 -27 -44 -27 -129 -1 -172 11 -18 69 -67 130 -109 61
-43 111 -80 111 -82 0 -2 -11 -20 -24 -41 -38 -57 -59 -146 -52 -209 9 -74 26
-112 96 -210 l60 -83 -63 0 c-79 0 -132 -24 -180 -80 -97 -114 -57 -300 77
-361 23 -10 50 -19 61 -19 20 0 20 -7 20 -323 0 -364 4 -389 76 -528 78 -149
221 -272 382 -326 l82 -28 720 0 720 0 81 27 c201 69 360 228 429 429 28 82
29 91 33 327 4 212 2 246 -12 267 -9 14 -23 25 -31 25 -10 0 -15 16 -17 63 -3
61 -3 61 -17 32 -10 -23 -10 -37 -2 -59 9 -25 8 -33 -9 -48 -19 -18 -20 -32
-20 -226 0 -143 -5 -229 -15 -277 -44 -208 -201 -376 -406 -432 -58 -16 -125
-18 -734 -18 -612 0 -676 2 -735 18 -184 51 -336 199 -396 387 -14 46 -18 106
-22 373 l-4 317 1229 0 c1175 0 1230 1 1268 19 74 34 125 105 125 174 l0 32
-30 -47 c-17 -27 -30 -52 -30 -56 0 -11 -39 -47 -69 -62 -58 -30 -170 -33
-1318 -34 -938 -1 -1164 -4 -1175 -14 -15 -15 -28 -518 -16 -615 20 -156 108
-307 232 -402 51 -38 151 -84 220 -100 97 -23 1346 -22 1444 0 204 48 363 196
428 399 24 76 26 95 28 303 1 123 5 226 9 229 4 4 14 1 23 -7 14 -11 15 -40
11 -248 -3 -201 -7 -245 -24 -296 -58 -176 -175 -310 -338 -386 -128 -60 -117
-60 -854 -59 -721 0 -731 1 -848 51 -113 48 -224 144 -286 247 -84 138 -96
204 -97 572 -1 280 -2 295 -21 316 -11 11 -38 26 -59 33 -72 21 -130 103 -130
182 0 104 85 189 189 189 49 0 97 36 87 66 -3 10 -30 57 -61 103 -86 133 -95
222 -34 335 16 31 29 64 29 73 0 27 -38 65 -120 122 -104 71 -118 84 -135 125
-14 33 -14 39 5 75 23 47 51 69 100 77 57 11 80 31 80 71 0 47 27 89 68 109
44 21 85 13 147 -28 l47 -31 45 24 c62 34 124 32 163 -6 46 -44 48 -81 11
-232 -32 -128 -32 -132 -15 -156 10 -13 43 -34 74 -46 30 -12 78 -42 105 -67
44 -40 54 -45 87 -41 54 7 112 38 116 63 2 12 -16 44 -48 83 -27 35 -50 65
-50 67 0 16 38 -3 74 -36 24 -22 48 -40 53 -40 20 0 47 42 52 83 8 54 24 54
32 -1 3 -24 15 -52 26 -64 21 -21 22 -21 54 -2 60 36 69 68 69 253 0 192 12
233 81 277 139 88 303 -13 299 -184 -4 -166 14 -1020 21 -1034 19 -36 220 -38
259 -3 11 10 20 22 20 27 0 5 9 28 20 50 11 23 20 49 20 58 0 9 3 20 7 23 9
10 10 57 1 57 -4 0 -8 7 -8 15 0 8 -5 23 -10 33 -11 19 -49 108 -51 120 0 4
-5 15 -10 25 -15 27 18 34 42 9 10 -12 19 -25 19 -30 0 -12 39 -62 49 -62 15
0 61 49 61 64 0 25 51 134 65 140 21 8 38 -19 26 -42 -23 -43 -52 -143 -49
-169 2 -22 12 -6 46 77 48 120 51 143 20 164 -52 37 -76 13 -124 -122 l-38
-106 -28 62 c-32 71 -65 99 -97 82 -47 -24 -45 -42 14 -168 l56 -118 -34 -89
-34 -90 -112 -3 -111 -3 0 548 c-1 432 -4 556 -14 586 -44 123 -177 186 -301
142z"/>
<path d="M1458 2876 c-18 -12 -43 -37 -55 -55 l-23 -34 -1 -476 c-2 -660 -2
-642 19 -663 16 -16 24 -17 74 -6 40 8 72 9 112 2 98 -18 91 -60 91 585 0 541
-1 557 -20 591 -42 70 -136 97 -197 56z m155 -56 l27 -30 0 -566 c0 -535 -1
-566 -17 -559 -71 29 -131 29 -186 0 l-27 -14 0 547 c0 344 4 561 10 584 25
87 129 108 193 38z"/>
<path d="M2183 2759 c-57 -22 -145 -95 -169 -140 -12 -24 -21 -29 -52 -29 -64
0 -111 -18 -118 -45 -15 -60 21 -91 89 -75 24 5 60 7 80 3 45 -7 57 2 95 71
90 159 313 165 411 10 38 -59 46 -110 30 -191 l-13 -65 52 -45 c118 -102 132
-233 37 -349 -41 -50 -43 -72 -11 -111 22 -26 56 -86 56 -98 0 -3 -129 -5
-286 -5 -157 0 -284 3 -282 8 2 4 14 37 28 74 l24 67 111 49 c119 53 142 75
122 119 -16 35 -45 37 -112 7 -57 -25 -59 -27 -35 -36 16 -6 26 -6 28 1 2 6
11 11 21 11 9 0 21 4 27 10 14 14 38 -5 30 -25 -3 -9 -15 -19 -26 -22 -11 -3
-20 -9 -20 -14 0 -5 -3 -8 -7 -7 -15 3 -138 -60 -153 -78 -25 -32 -40 -63 -40
-83 0 -11 -5 -23 -10 -26 -12 -7 -5 -54 10 -69 18 -18 552 -15 573 3 20 16 15
46 -19 111 -28 52 -29 63 -11 82 11 11 40 63 67 118 14 29 4 134 -16 180 -12
25 -44 69 -72 97 l-52 52 11 54 c19 95 -16 199 -90 263 -14 13 -32 24 -38 24
-7 0 -13 4 -13 9 0 5 -29 14 -65 21 -119 22 -225 -23 -290 -125 -36 -55 -53
-65 -122 -65 -51 0 -73 8 -73 26 0 13 11 17 81 29 27 4 50 20 96 69 77 82 127
108 218 114 141 9 245 -49 305 -171 25 -51 31 -77 34 -149 3 -87 6 -94 51
-144 37 -40 42 -50 64 -107 33 -90 27 -163 -25 -273 l-24 -51 32 -79 c36 -86
48 -99 123 -129 39 -16 57 -31 82 -70 18 -28 40 -59 48 -70 15 -19 16 -18 11
23 -8 76 -69 140 -157 166 -37 11 -44 18 -54 54 -7 22 -22 56 -34 75 -14 23
-18 38 -11 42 6 3 22 30 37 58 23 45 27 64 28 142 0 77 -4 98 -26 146 -15 31
-44 76 -65 99 -37 41 -39 46 -40 114 0 87 -14 134 -56 206 -82 136 -271 198
-425 139z"/>
<path d="M312 2754 c-12 -8 -22 -22 -22 -30 0 -8 -4 -14 -10 -14 -6 0 -6 -8
-1 -22 18 -46 41 -127 41 -147 0 -30 -30 -27 -88 9 -60 36 -85 38 -117 5 -30
-29 -32 -64 -5 -98 18 -22 49 -45 209 -154 50 -34 83 -30 206 22 17 7 40 16
52 19 32 10 57 60 77 156 10 47 22 95 27 108 28 71 -2 142 -60 142 -40 0 -66
-26 -87 -87 -28 -81 -60 -78 -86 7 -25 84 -85 120 -136 84z m70 -21 c8 -10 27
-50 42 -90 15 -39 34 -74 42 -77 49 -19 76 5 94 82 16 68 47 93 85 68 14 -9
25 -21 25 -27 0 -17 -69 -282 -78 -297 -9 -18 -212 -93 -226 -84 -6 3 -64 44
-128 90 -105 74 -118 86 -118 113 0 39 40 61 67 37 10 -8 40 -28 66 -43 40
-23 52 -26 72 -17 38 18 40 50 6 136 -24 58 -29 82 -21 96 17 32 50 38 72 13z"/>
<path d="M1799 2471 c-13 -11 -21 -22 -17 -26 10 -10 48 14 48 30 0 19 -3 19
-31 -4z"/>
<path d="M535 2272 c-130 -44 -192 -83 -223 -140 -32 -57 -40 -143 -18 -177
20 -30 35 -31 117 -5 35 10 67 16 72 11 15 -15 -5 -39 -47 -55 -88 -34 -94
-69 -27 -160 71 -95 25 -87 481 -84 l402 3 19 24 c17 21 19 41 19 240 0 237
-5 259 -55 273 -50 14 -158 10 -225 -7 -172 -44 -265 -141 -300 -307 -13 -65
-27 -80 -47 -52 -29 39 11 174 76 252 48 59 81 105 81 114 0 23 -65 76 -111
91 -71 24 -89 22 -214 -21z m196 -3 c21 -7 54 -25 74 -41 l36 -30 -43 -38
c-79 -69 -138 -200 -138 -304 0 -105 100 -101 114 5 10 73 39 143 81 194 71
87 241 143 385 126 l55 -6 3 -242 2 -243 -407 0 -408 1 -49 72 c-27 40 -48 76
-48 81 0 5 25 18 54 29 67 25 88 43 88 77 0 56 -45 64 -142 25 -34 -14 -65
-25 -70 -25 -15 0 -8 105 11 145 30 66 69 93 198 140 128 48 146 51 204 34z"/>
<path d="M323 1610 c-97 -5 -125 -17 -165 -71 -27 -35 -26 -118 0 -161 41 -66
14 -63 606 -66 620 -3 594 -7 581 77 -4 25 -9 77 -11 116 -6 111 27 104 -484
107 -239 2 -476 1 -527 -2z m977 -110 c0 -49 6 -95 15 -117 8 -19 15 -37 15
-39 0 -10 -1048 -3 -1082 6 -52 15 -78 52 -78 109 0 27 7 56 16 70 35 50 42
50 597 51 l517 0 0 -80z"/>
<path d="M1479 1602 c-30 -13 -66 -48 -83 -79 -33 -64 -14 -130 50 -180 92
-69 229 4 228 122 -1 53 -16 79 -66 115 -41 30 -91 38 -129 22z m129 -68 c66
-70 28 -170 -71 -181 -43 -5 -49 -3 -82 30 -60 60 -46 150 28 183 45 19 86 8
125 -32z"/>
<path d="M1745 1590 c-14 -15 -20 -45 -25 -114 -4 -52 -10 -98 -14 -104 -10
-17 4 -40 33 -51 19 -8 181 -11 556 -9 l530 3 32 24 c41 30 63 85 56 137 -8
60 -28 90 -76 113 -42 21 -55 21 -559 21 -503 0 -515 0 -533 -20z m1069 -24
c46 -19 66 -52 66 -106 0 -26 -7 -56 -16 -69 -36 -50 -45 -51 -609 -51 -289 0
-525 1 -525 3 0 1 7 24 15 51 8 27 15 80 15 118 l0 68 510 0 c414 0 517 -3
544 -14z"/>
<path d="M1402 1053 c-25 -10 -34 -53 -17 -79 15 -23 20 -24 143 -24 138 0
152 5 152 50 0 51 -24 60 -151 59 -63 0 -120 -3 -127 -6z m232 -29 c18 -7 21
-30 5 -40 -18 -11 -190 -14 -210 -3 -22 11 -25 35 -6 42 18 8 192 8 211 1z"/>
<path d="M2027 1042 c-21 -23 -22 -56 -1 -77 13 -13 37 -15 142 -13 123 3 127
4 139 27 12 25 3 57 -21 73 -6 4 -63 8 -127 8 -100 0 -118 -3 -132 -18z m237
-18 c21 -8 20 -31 -1 -42 -15 -7 -131 -9 -194 -3 -18 1 -32 27 -23 42 6 10
193 13 218 3z"/>
<path d="M757 1032 c-22 -25 -21 -48 3 -72 18 -18 33 -20 135 -20 102 0 117 2
135 20 25 25 26 52 2 73 -15 14 -41 17 -139 17 -103 0 -122 -3 -136 -18z m222
-8 c25 -5 31 -11 29 -28 -3 -20 -10 -21 -111 -24 -89 -2 -108 0 -113 13 -12
31 15 45 91 45 40 0 87 -3 104 -6z"/>
<path d="M757 752 c-22 -25 -21 -48 3 -72 18 -18 33 -20 133 -20 127 0 157 11
157 59 0 46 -14 51 -150 51 -110 0 -129 -2 -143 -18z m255 -20 c8 -8 8 -15 -2
-27 -11 -13 -32 -15 -119 -13 -100 3 -106 4 -109 25 -2 14 3 23 15 27 33 9
203 0 215 -12z"/>
<path d="M1384 744 c-16 -24 -16 -27 3 -52 20 -26 23 -27 138 -30 128 -3 155
6 155 54 0 46 -22 54 -155 54 -123 0 -125 0 -141 -26z m254 -8 c17 -10 15 -33
-4 -40 -9 -3 -60 -6 -115 -6 -83 0 -101 3 -106 16 -12 32 25 45 122 41 50 -2
97 -7 103 -11z"/>
<path d="M2022 758 c-20 -20 -14 -65 10 -82 17 -12 49 -16 134 -16 109 0 113
1 133 26 19 25 19 45 -2 72 -13 17 -258 17 -275 0z m241 -20 c21 -11 22 -34 1
-42 -9 -3 -55 -6 -104 -6 -49 0 -95 3 -104 6 -23 9 -20 33 7 44 27 11 175 10
200 -2z"/>
<path d="M757 472 c-22 -25 -21 -48 3 -72 18 -18 33 -20 138 -20 131 0 152 9
152 63 0 39 -26 47 -158 47 -102 0 -121 -3 -135 -18z m253 -22 c20 -33 0 -40
-111 -40 -93 0 -111 3 -116 16 -12 31 21 41 123 39 66 -2 99 -6 104 -15z"/>
<path d="M1385 466 c-14 -20 -14 -29 -4 -48 7 -13 17 -26 23 -30 6 -4 64 -8
128 -8 126 0 148 8 148 55 0 48 -21 55 -155 55 -121 0 -125 -1 -140 -24z m257
-14 c5 -5 6 -16 2 -26 -6 -14 -21 -16 -118 -14 -103 3 -111 4 -111 23 0 14 9
22 30 26 42 9 186 2 197 -9z"/>
<path d="M2028 479 c-24 -13 -23 -61 0 -82 15 -14 41 -17 133 -17 128 0 152 8
152 55 0 47 -24 55 -152 55 -64 0 -124 -5 -133 -11z m241 -34 c10 -10 12 -18
5 -25 -15 -15 -202 -14 -220 1 -38 31 -3 45 112 42 63 -2 92 -7 103 -18z"/>
</g>
</svg>
